<svg width="63" height="62" viewBox="0 0 63 62" fill="none" xmlns="http://www.w3.org/2000/svg">
<path d="M56.1667 1.5H6.83333C3.88781 1.5 1.5 3.88781 1.5 6.83333V43.8947C1.5 46.8403 3.88781 49.228 6.83333 49.228H56.1667C59.1123 49.228 61.5 46.8403 61.5 43.8947V6.83333C61.5 3.88781 59.1123 1.5 56.1667 1.5Z" stroke="#00334E" stroke-width="3" stroke-linecap="round" stroke-linejoin="round"/>
<path d="M26.047 49.2253L23.319 60.1347" stroke="#00334E" stroke-width="3" stroke-linecap="round" stroke-linejoin="round"/>
<path d="M23.319 60.134H38.319" stroke="#00334E" stroke-width="3" stroke-linecap="round" stroke-linejoin="round"/>
<path d="M36.9557 49.2253L39.6811 60.1347" stroke="#00334E" stroke-width="3" stroke-linecap="round" stroke-linejoin="round"/>
<path d="M43.7718 60.134H19.2278" stroke="#00334E" stroke-width="3" stroke-linecap="round" stroke-linejoin="round"/>
<path d="M1.5 39.6492H61.5" stroke="#00334E" stroke-width="3" stroke-linecap="round" stroke-linejoin="round"/>
<path d="M9.99347 12.5586H16.0361" stroke="#00334E" stroke-width="3" stroke-linecap="round" stroke-linejoin="round"/>
<path d="M22.0781 12.5586H25.7048" stroke="#00334E" stroke-width="3" stroke-linecap="round" stroke-linejoin="round"/>
<path d="M9.99347 20.7102H13.6175" stroke="#00334E" stroke-width="3" stroke-linecap="round" stroke-linejoin="round"/>
<path d="M19.6628 20.7102H25.7054" stroke="#00334E" stroke-width="3" stroke-linecap="round" stroke-linejoin="round"/>
<path d="M9.99347 28.8625H25.7055" stroke="#00334E" stroke-width="3" stroke-linecap="round" stroke-linejoin="round"/>
<path d="M34.2278 1.5V39.6493" stroke="#00334E" stroke-width="3" stroke-linecap="round" stroke-linejoin="round"/>
<path d="M34.2278 30.862L42.3665 22.926C43.6942 21.8807 45.3252 21.2938 47.0145 21.2535C48.7041 21.2131 50.3609 21.7213 51.7372 22.702L61.4998 30.862" stroke="#00334E" stroke-width="3" stroke-linecap="round" stroke-linejoin="round"/>
<path d="M43.7591 13.892C43.0226 13.892 42.4258 13.295 42.4258 12.5587C42.4258 11.8223 43.0226 11.2253 43.7591 11.2253" stroke="#00334E" stroke-width="3"/>
<path d="M43.7591 13.892C44.4954 13.892 45.0924 13.295 45.0924 12.5587C45.0924 11.8223 44.4954 11.2253 43.7591 11.2253" stroke="#00334E" stroke-width="3"/>
</svg>
