<svg width="72" height="77" viewBox="0 0 72 77" fill="none" xmlns="http://www.w3.org/2000/svg">
<path d="M71.5812 53.6251C71.9467 54.2554 72.046 55.004 71.8574 55.7069C71.6687 56.4098 71.2074 57.0098 70.5745 57.3755L37.363 76.6256C36.9398 76.8708 36.4587 77 35.9688 77C35.4789 77 34.9978 76.8708 34.5746 76.6256L1.36306 57.3755C0.739281 57.003 0.288242 56.4014 0.107592 55.7009C-0.0730581 55.0005 0.0312199 54.2575 0.397848 53.6328C0.764476 53.0082 1.36395 52.5522 2.06648 52.3635C2.76901 52.1748 3.51805 52.2687 4.15144 52.6248L35.9791 71.0671L67.8068 52.6248C68.4412 52.2616 69.1945 52.1629 69.9019 52.3504C70.6093 52.5379 71.2132 52.9962 71.5812 53.6251ZM67.8068 36.1247L35.9791 54.567L4.15144 36.1247C3.52127 35.8129 2.79521 35.7515 2.12106 35.9529C1.4469 36.1543 0.875318 36.6033 0.522642 37.2087C0.169965 37.8141 0.0627058 38.5302 0.222693 39.2114C0.382681 39.8926 0.797891 40.4876 1.38381 40.8753L34.5953 60.1255C35.0185 60.3707 35.4996 60.4999 35.9895 60.4999C36.4794 60.4999 36.9605 60.3707 37.3837 60.1255L70.5952 40.8753C70.9142 40.696 71.1942 40.4555 71.4189 40.1678C71.6436 39.8801 71.8085 39.5509 71.9041 39.1994C71.9998 38.8478 72.0242 38.4809 71.9759 38.1199C71.9277 37.7589 71.8078 37.411 71.6231 37.0964C71.4385 36.7818 71.1928 36.5068 70.9003 36.2873C70.6079 36.0679 70.2744 35.9083 69.9194 35.8179C69.5644 35.7275 69.1948 35.7081 68.8322 35.7607C68.4695 35.8134 68.121 35.9371 67.8068 36.1247ZM0 21.9999C0.00110373 21.5182 0.129508 21.0453 0.372363 20.6284C0.615218 20.2116 0.964004 19.8654 1.38381 19.6246L34.5953 0.374417C35.0185 0.129205 35.4996 0 35.9895 0C36.4794 0 36.9605 0.129205 37.3837 0.374417L70.5952 19.6246C71.013 19.8667 71.3596 20.2135 71.6005 20.6303C71.8414 21.047 71.9682 21.5193 71.9682 21.9999C71.9682 22.4805 71.8414 22.9527 71.6005 23.3695C71.3596 23.7863 71.013 24.133 70.5952 24.3752L37.3837 43.6254C36.9605 43.8706 36.4794 43.9998 35.9895 43.9998C35.4996 43.9998 35.0185 43.8706 34.5953 43.6254L1.38381 24.3752C0.964004 24.1344 0.615218 23.7882 0.372363 23.3713C0.129508 22.9545 0.00110373 22.4816 0 21.9999ZM8.26136 21.9999L35.9791 38.0669L63.6969 21.9999L35.9791 5.93289L8.26136 21.9999Z" fill="#00334E"/>
</svg>
